<svg id="visual" viewBox="0 0 900 600" width="900" height="600" xmlns="http://www.w3.org/2000/svg" xmlns:xlink="http://www.w3.org/1999/xlink" version="1.1"><g stroke-width="1" stroke-linejoin="bevel"><path d="M425 306L427 372L500 268Z" fill="#d0bd73" stroke="#d0bd73"></path><path d="M427 372L566 291L500 268Z" fill="#f5d788" stroke="#f5d788"></path><path d="M427 372L589 376L566 291Z" fill="#d9c378" stroke="#d9c378"></path><path d="M566 291L514 234L500 268Z" fill="#f5d788" stroke="#f5d788"></path><path d="M500 268L377 165L425 306Z" fill="#e2ca7d" stroke="#e2ca7d"></path><path d="M492 436L589 376L427 372Z" fill="#f5d788" stroke="#f5d788"></path><path d="M427 372L477 492L492 436Z" fill="#b5a964" stroke="#b5a964"></path><path d="M639 508L676 432L589 376Z" fill="#beb069" stroke="#beb069"></path><path d="M733 270L571 193L566 291Z" fill="#f5d788" stroke="#f5d788"></path><path d="M566 291L571 193L514 234Z" fill="#e2ca7d" stroke="#e2ca7d"></path><path d="M298 415L422 526L427 372Z" fill="#d9c378" stroke="#d9c378"></path><path d="M427 372L422 526L477 492Z" fill="#c7b66e" stroke="#c7b66e"></path><path d="M377 165L291 294L425 306Z" fill="#e2ca7d" stroke="#e2ca7d"></path><path d="M425 306L291 294L427 372Z" fill="#c7b66e" stroke="#c7b66e"></path><path d="M377 165L500 268L514 234Z" fill="#b5a964" stroke="#b5a964"></path><path d="M484 124L377 165L514 234Z" fill="#b5a964" stroke="#b5a964"></path><path d="M291 294L298 415L427 372Z" fill="#c7b66e" stroke="#c7b66e"></path><path d="M639 508L589 376L492 436Z" fill="#e2ca7d" stroke="#e2ca7d"></path><path d="M589 376L733 270L566 291Z" fill="#d0bd73" stroke="#d0bd73"></path><path d="M639 508L492 436L477 492Z" fill="#beb069" stroke="#beb069"></path><path d="M571 193L484 124L514 234Z" fill="#beb069" stroke="#beb069"></path><path d="M484 124L423 120L377 165Z" fill="#9b9655" stroke="#9b9655"></path><path d="M582 600L639 508L477 492Z" fill="#d9c378" stroke="#d9c378"></path><path d="M198 381L285 487L298 415Z" fill="#ecd083" stroke="#ecd083"></path><path d="M298 415L285 487L422 526Z" fill="#d9c378" stroke="#d9c378"></path><path d="M676 432L733 270L589 376Z" fill="#c7b66e" stroke="#c7b66e"></path><path d="M571 193L585 88L484 124Z" fill="#9b9655" stroke="#9b9655"></path><path d="M438 600L484 600L422 526Z" fill="#e2ca7d" stroke="#e2ca7d"></path><path d="M422 526L484 600L477 492Z" fill="#c7b66e" stroke="#c7b66e"></path><path d="M639 508L712 481L676 432Z" fill="#f5d788" stroke="#f5d788"></path><path d="M676 432L788 438L733 270Z" fill="#ecd083" stroke="#ecd083"></path><path d="M728 600L712 481L639 508Z" fill="#9b9655" stroke="#9b9655"></path><path d="M723 185L585 88L571 193Z" fill="#d0bd73" stroke="#d0bd73"></path><path d="M484 124L495 0L423 120Z" fill="#d9c378" stroke="#d9c378"></path><path d="M302 600L438 600L422 526Z" fill="#aca35f" stroke="#aca35f"></path><path d="M263 116L285 162L377 165Z" fill="#d0bd73" stroke="#d0bd73"></path><path d="M377 165L285 162L291 294Z" fill="#d9c378" stroke="#d9c378"></path><path d="M291 294L198 381L298 415Z" fill="#d9c378" stroke="#d9c378"></path><path d="M484 600L582 600L477 492Z" fill="#c7b66e" stroke="#c7b66e"></path><path d="M733 270L723 185L571 193Z" fill="#d9c378" stroke="#d9c378"></path><path d="M180 303L198 381L291 294Z" fill="#beb069" stroke="#beb069"></path><path d="M186 174L180 303L291 294Z" fill="#d9c378" stroke="#d9c378"></path><path d="M198 381L229 513L285 487Z" fill="#f5d788" stroke="#f5d788"></path><path d="M285 487L302 600L422 526Z" fill="#e2ca7d" stroke="#e2ca7d"></path><path d="M423 120L263 116L377 165Z" fill="#9b9655" stroke="#9b9655"></path><path d="M285 162L186 174L291 294Z" fill="#ecd083" stroke="#ecd083"></path><path d="M308 0L263 116L423 120Z" fill="#aca35f" stroke="#aca35f"></path><path d="M808 498L788 438L712 481Z" fill="#c7b66e" stroke="#c7b66e"></path><path d="M712 481L788 438L676 432Z" fill="#9b9655" stroke="#9b9655"></path><path d="M733 270L786 230L723 185Z" fill="#c7b66e" stroke="#c7b66e"></path><path d="M803 291L786 230L733 270Z" fill="#ecd083" stroke="#ecd083"></path><path d="M788 438L803 291L733 270Z" fill="#aca35f" stroke="#aca35f"></path><path d="M229 513L302 600L285 487Z" fill="#e2ca7d" stroke="#e2ca7d"></path><path d="M786 230L729 116L723 185Z" fill="#aca35f" stroke="#aca35f"></path><path d="M723 185L729 116L585 88Z" fill="#aca35f" stroke="#aca35f"></path><path d="M620 0L495 0L585 88Z" fill="#aca35f" stroke="#aca35f"></path><path d="M585 88L495 0L484 124Z" fill="#beb069" stroke="#beb069"></path><path d="M263 116L186 174L285 162Z" fill="#d0bd73" stroke="#d0bd73"></path><path d="M495 0L399 0L423 120Z" fill="#ecd083" stroke="#ecd083"></path><path d="M263 116L234 85L186 174Z" fill="#c7b66e" stroke="#c7b66e"></path><path d="M582 600L728 600L639 508Z" fill="#ecd083" stroke="#ecd083"></path><path d="M308 0L234 85L263 116Z" fill="#e2ca7d" stroke="#e2ca7d"></path><path d="M764 600L808 498L712 481Z" fill="#a49c5a" stroke="#a49c5a"></path><path d="M788 438L900 325L803 291Z" fill="#ecd083" stroke="#ecd083"></path><path d="M695 0L620 0L585 88Z" fill="#c7b66e" stroke="#c7b66e"></path><path d="M229 513L221 600L302 600Z" fill="#9b9655" stroke="#9b9655"></path><path d="M120 511L221 600L229 513Z" fill="#beb069" stroke="#beb069"></path><path d="M120 511L229 513L198 381Z" fill="#aca35f" stroke="#aca35f"></path><path d="M119 208L107 336L180 303Z" fill="#a49c5a" stroke="#a49c5a"></path><path d="M180 303L107 336L198 381Z" fill="#a49c5a" stroke="#a49c5a"></path><path d="M728 600L764 600L712 481Z" fill="#aca35f" stroke="#aca35f"></path><path d="M107 336L111 399L198 381Z" fill="#beb069" stroke="#beb069"></path><path d="M399 0L308 0L423 120Z" fill="#d0bd73" stroke="#d0bd73"></path><path d="M186 174L119 208L180 303Z" fill="#a49c5a" stroke="#a49c5a"></path><path d="M79 98L119 208L186 174Z" fill="#e2ca7d" stroke="#e2ca7d"></path><path d="M79 98L186 174L234 85Z" fill="#beb069" stroke="#beb069"></path><path d="M770 0L695 0L729 116Z" fill="#e2ca7d" stroke="#e2ca7d"></path><path d="M729 116L695 0L585 88Z" fill="#d0bd73" stroke="#d0bd73"></path><path d="M111 399L120 511L198 381Z" fill="#a49c5a" stroke="#a49c5a"></path><path d="M900 425L900 325L788 438Z" fill="#b5a964" stroke="#b5a964"></path><path d="M803 291L900 190L786 230Z" fill="#e2ca7d" stroke="#e2ca7d"></path><path d="M786 230L825 79L729 116Z" fill="#e2ca7d" stroke="#e2ca7d"></path><path d="M900 425L788 438L900 463Z" fill="#beb069" stroke="#beb069"></path><path d="M308 0L236 0L234 85Z" fill="#b5a964" stroke="#b5a964"></path><path d="M900 463L788 438L808 498Z" fill="#b5a964" stroke="#b5a964"></path><path d="M900 190L825 79L786 230Z" fill="#e2ca7d" stroke="#e2ca7d"></path><path d="M900 600L900 463L808 498Z" fill="#f5d788" stroke="#f5d788"></path><path d="M900 325L900 190L803 291Z" fill="#9b9655" stroke="#9b9655"></path><path d="M825 79L770 0L729 116Z" fill="#c7b66e" stroke="#c7b66e"></path><path d="M0 477L120 511L111 399Z" fill="#c7b66e" stroke="#c7b66e"></path><path d="M0 600L116 600L120 511Z" fill="#d9c378" stroke="#d9c378"></path><path d="M120 511L116 600L221 600Z" fill="#f5d788" stroke="#f5d788"></path><path d="M119 208L0 297L107 336Z" fill="#d9c378" stroke="#d9c378"></path><path d="M107 336L0 394L111 399Z" fill="#9b9655" stroke="#9b9655"></path><path d="M77 0L79 98L234 85Z" fill="#b5a964" stroke="#b5a964"></path><path d="M900 190L900 96L825 79Z" fill="#aca35f" stroke="#aca35f"></path><path d="M825 79L900 0L770 0Z" fill="#ecd083" stroke="#ecd083"></path><path d="M764 600L900 600L808 498Z" fill="#ecd083" stroke="#ecd083"></path><path d="M0 197L0 297L119 208Z" fill="#f5d788" stroke="#f5d788"></path><path d="M0 297L0 394L107 336Z" fill="#beb069" stroke="#beb069"></path><path d="M0 394L0 477L111 399Z" fill="#f5d788" stroke="#f5d788"></path><path d="M0 137L0 197L119 208Z" fill="#9b9655" stroke="#9b9655"></path><path d="M0 0L0 137L79 98Z" fill="#b5a964" stroke="#b5a964"></path><path d="M79 98L0 137L119 208Z" fill="#b5a964" stroke="#b5a964"></path><path d="M236 0L77 0L234 85Z" fill="#aca35f" stroke="#aca35f"></path><path d="M900 96L900 0L825 79Z" fill="#9b9655" stroke="#9b9655"></path><path d="M0 477L0 600L120 511Z" fill="#a49c5a" stroke="#a49c5a"></path><path d="M77 0L0 0L79 98Z" fill="#d9c378" stroke="#d9c378"></path></g></svg>